{
	"asset":{
		"generator":"Khronos glTF Blender I/O v4.1.63",
		"version":"2.0"
	},
	"scene":0,
	"scenes":[
		{
			"name":"Scene",
			"nodes":[
				0
			]
		}
	],
	"nodes":[
		{
			"mesh":0,
			"name":"Cylinder.001",
			"scale":[
				0.6336510181427002,
				14.927552223205566,
				0.6336510181427002
			],
			"translation":[
				4.003382682800293,
				0,
				3.9868404865264893
			]
		}
	],
	"materials":[
		{
			"doubleSided":true,
			"name":"Material",
			"pbrMetallicRoughness":{
				"baseColorFactor":[
					1,
					0.8250281810760498,
					0.1952446699142456,
					1
				],
				"metallicFactor":0,
				"roughnessFactor":0.5
			}
		}
	],
	"meshes":[
		{
			"name":"Cylinder.001",
			"primitives":[
				{
					"attributes":{
						"POSITION":0,
						"NORMAL":1,
						"TEXCOORD_0":2
					},
					"indices":3,
					"material":0
				}
			]
		}
	],
	"accessors":[
		{
			"bufferView":0,
			"componentType":5126,
			"count":7466,
			"max":[
				20.505582809448242,
				1.0000001192092896,
				20.531688690185547
			],
			"min":[
				-33.141502380371094,
				-1.2527039051055908,
				-33.11539840698242
			],
			"type":"VEC3"
		},
		{
			"bufferView":1,
			"componentType":5126,
			"count":7466,
			"type":"VEC3"
		},
		{
			"bufferView":2,
			"componentType":5126,
			"count":7466,
			"type":"VEC2"
		},
		{
			"bufferView":3,
			"componentType":5123,
			"count":15384,
			"type":"SCALAR"
		}
	],
	"bufferViews":[
		{
			"buffer":0,
			"byteLength":89592,
			"byteOffset":0,
			"target":34962
		},
		{
			"buffer":0,
			"byteLength":89592,
			"byteOffset":89592,
			"target":34962
		},
		{
			"buffer":0,
			"byteLength":59728,
			"byteOffset":179184,
			"target":34962
		},
		{
			"buffer":0,
			"byteLength":30768,
			"byteOffset":238912,
			"target":34963
		}
	],
	"buffers":[
		{
			"byteLength":269680,
			"uri":"roketdenemesi3.bin"
		}
	]
}
